<svg xmlns="http://www.w3.org/2000/svg" viewBox="0 0 64 64">
  <defs>
    <linearGradient id="g" x1="0" x2="1" y1="0" y2="1">
      <stop offset="0%" stop-color="#2563EB"/>
      <stop offset="100%" stop-color="#3B82F6"/>
    </linearGradient>
  </defs>
  <rect x="6" y="6" width="52" height="52" rx="12" fill="url(#g)"/>
  <path d="M20 24h16l8 8v8a8 8 0 0 1-8 8H20a8 8 0 0 1-8-8V32a8 8 0 0 1 8-8z" fill="#fff" opacity=".9"/>
  <path d="M36 24v8h8" fill="none" stroke="#fff" stroke-width="3" stroke-linecap="round" stroke-linejoin="round"/>
  <path d="M24 36h8M24 44h16" stroke="#2563EB" stroke-width="3" stroke-linecap="round"/>
</svg>
<svg xmlns="http://www.w3.org/2000/svg" viewBox="0 0 100 100">
  <rect x="15" y="25" width="70" height="50" rx="5" fill="#4F46E5"/>
  <path d="M30 40 L45 55 L70 35" fill="none" stroke="white" stroke-width="5"/>
  <circle cx="75" cy="30" r="3" fill="white"/>
</svg>